Patient4_TMGait_0pt6_02_right_19_EMG.mot
version=1
nRows=23
nColumns=33
inDegrees=no
endheader
time	1LAddLong	2LGlutMax	3LGlutMed	4LIliopsoas	5LSemiMemb	6LBicFemLong	7LRecFem	8LVastMed	9LVastLat	10LGasMed	11LTibAnt	12lTibPost	13LPeroneusLong	14LSol	15LExtDigLong	16LFlexDigLong	17RAddLong	18RGlutMax	19RGlutMed	20RIliopsoas	21RSemiMemb	22RBicFemLong	23RRecFem	24RVastMed	25RVastLat	26RGasMed	27RTibAnt	28RTibPost	29RPeroneusLong	30RSol	31RExtDigLong	32RFlexDigLong
23.585	0.019531	0.18402	0.059509	0.011597	0.10635	-0.20233	0.015869	-0.001221	-0.20157	-0.006104	-0.002899	0.02243	0.041046	0.049744	0.011444	0.010529	0.000458	0.070953	0.098419	-0.012665	0.084076	0.03479	-0.20874	0.052032	0.008392	0.007629	0.05249	-0.001678	-0.085602	0.011139	0.000763	-0.012817
23.586	0.011597	0.12054	0.075531	0.011597	0.03952	-0.11673	-0.002899	0.008087	-0.15976	-0.003967	0.008392	0.016785	0.068817	0.03891	-0.001831	-0.005035	0.015411	0.004425	0.045319	-0.015717	-0.007019	0.072937	-0.24017	0.004272	0.015411	0.016479	0.066376	-0.00061	0.065613	0.05722	-0.002289	-0.010834
23.587	0.005493	0.13916	0.078278	0.006104	-0.001068	0.027618	0.003662	0.018616	-0.12268	-0.007172	-0.006104	0.013733	0.07843	0.061646	0.010376	0.004272	0.033875	0.07309	-0.041656	-0.027466	-0.11475	0.035706	-0.20065	-0.049896	-0.004578	0.014648	0.11581	0.001831	0.097961	0.043182	0.003662	-0.011597
23.588	-0.011292	0.16129	0.12558	-0.000305	-0.03952	0.093842	-0.024261	0.013275	-0.088959	-0.013733	-0.006866	0.022278	0.057373	0.047913	0.003204	0.004883	0.002747	0.035553	-0.061188	-0.023193	-0.088959	0.044556	-0.24002	0.016327	-0.001221	0.013885	0.11795	0.007172	0.053406	0.020142	0.005035	-0.015259
23.589	-0.022736	0.23025	0.12146	0.002441	-0.075378	0.15106	-0.011902	0.020294	-0.059357	0.000763	-0.004578	0.018005	0.003357	0.046387	-0.000916	0.001221	0.00351	-0.033417	0.01297	-0.045624	0.079193	-0.046844	-0.24323	0.017395	0.002899	0.022583	0.15228	0.004883	-0.13534	0.007935	-0.001831	-0.011902
23.59	-0.028839	0.27161	0.08194	-0.000916	-0.06485	0.17716	-0.058441	0.00473	-0.03006	0.003662	-0.029297	0.018311	-0.021973	0.074463	-0.036926	-0.001373	0.011292	0.071564	-0.11612	-0.16892	0.088501	0.092163	-0.2356	-0.020447	0.013733	0.027771	0.13382	0.001831	-0.30121	0.013123	-0.002594	-0.011292
23.591	-0.028229	0.30258	0.054321	-0.007477	-0.02594	0.20371	-0.11581	0.006866	0.029144	0.008087	-0.040436	0.020752	0.079803	0.041656	-0.068665	0.006866	-0.000458	0.067749	-0.14633	-0.32715	0.20355	0.21423	-0.21271	0.021057	0.009155	0.029144	0.062866	-0.003815	-0.34134	0.017395	0.00351	-0.016632
23.592	-0.009308	0.26932	-0.00351	-0.001984	-0.031891	0.14999	-0.18188	0.003204	0.025787	0.005646	-0.022278	0.016327	0.13351	0.039215	-0.089111	0.001221	-0.016785	0.098114	-0.15549	-0.23605	0.29999	0.14801	-0.21835	0.009003	0.014038	0.032959	-0.084991	0.002747	-0.1886	-0.032959	-0.000305	-0.014038
23.593	0.02182	0.15778	-0.068054	0.00946	0.015259	0.15457	-0.23712	0.004272	0.025024	0.005188	-0.015869	0.012207	0.075989	0.056915	-0.08316	-0.002136	-0.02243	0.12177	-0.11185	-0.04837	0.37979	-0.06546	-0.19409	-0.084839	-0.010223	0.013733	-0.052795	0.00061	-0.19012	-0.2153	0.000153	-0.016174
23.594	0.008087	0.09079	-0.1207	0.002136	0.013275	0.27481	-0.11429	-0.008698	-0.045776	0.008087	-0.031586	0.020294	0.066528	0.10147	0.009155	-0.005341	-0.019989	0.14679	-0.015564	0.19821	0.31021	-0.24948	-0.24689	-0.025787	-0.016327	-0.005798	0.031433	0.000305	0.056763	-0.36682	-0.005035	-0.019379
23.595	-0.00351	0.066833	-0.14023	0.009308	0.026855	0.25055	0.03891	-0.006104	0.043335	-0.005035	-0.11063	0.015259	0.072174	0.10269	0.11658	-0.003357	-0.053711	0.21088	-0.030365	0.22186	0.056763	-0.31937	-0.20996	-0.050354	-0.014191	-0.025787	0.096741	0.000763	0.1799	-0.41733	-0.001526	-0.023804
23.596	-0.012817	0.019684	-0.18097	0.004425	0.070648	0.22461	0.1239	-0.004883	0.18845	0.041962	-0.14771	0.017242	0.02121	0.025787	0.083466	0.003357	-0.059204	0.26321	-0.025635	0.13489	-0.011902	-0.28183	-0.24521	-0.03952	0.003052	-0.055389	0.11002	-0.003967	0.17624	-0.32898	0.001526	-0.015259
23.597	-0.02243	-0.003357	-0.20142	0.019531	0.067596	-0.027466	0.027008	-0.001831	0.30594	0.045319	-0.10941	0.018616	-0.056915	0.077667	0.043488	-0.000153	-0.048065	0.33814	-0.001984	0.14984	-0.11887	-0.21698	-0.30167	-0.021667	0.017395	-0.082703	0.11154	-0.00351	0.16251	-0.061798	-0.000763	-0.015411
23.598	-0.014191	-0.081329	-0.14358	0.009918	0.08316	-0.49042	0.016479	-0.002899	0.30624	0.0383	-0.082397	0.016937	-0.00412	0.034485	0.056305	0.016327	-0.051117	0.29999	0.03952	0.14923	-0.13855	-0.11612	-0.24475	-0.055237	-0.007935	-0.074768	0.073242	-0.003662	0.28091	0.12009	-0.005341	-0.022125
23.599	-0.011902	-0.10391	-0.10696	0.024109	0.095062	-0.82352	0.039673	0.001373	0.27924	0.019531	0.010834	0.018463	0.028076	0.071869	0.14267	0.001831	-0.024109	0.3595	0.070343	0.050659	-0.12924	0.055695	-0.23086	-0.051727	-0.016785	-0.070496	0.054932	-0.004578	0.25269	0.18692	0.000153	-0.023956
23.6	0.015869	-0.082092	-0.024567	-0.00885	0.060272	-0.65872	0.018921	-0.003052	0.29022	-0.006866	0.19943	0.01709	0.12756	0.088501	0.14267	0.014191	-0.013733	0.30243	0.12833	0.026245	-0.088501	0.20218	-0.24017	-0.023499	-0.023041	-0.05722	0.015411	-0.012207	0.18906	0.14587	-0.000916	-0.007324
23.601	0.042572	-0.12619	-0.028534	-0.012512	0.027924	-0.43121	0.025177	-0.00946	0.26779	0.003357	0.25101	0.019531	0.071716	0.084991	0.15564	0.009308	0.006561	0.24231	0.15152	-0.012054	-0.058594	0.17746	-0.23926	-0.026245	-0.00351	0.002899	-0.015411	-0.017853	0.14938	0.1532	-0.002136	-0.014343
23.602	0.057068	-0.08316	-0.098877	-0.029602	0.11215	-0.35233	-0.020294	0.004272	0.19959	-0.024872	0.094147	0.022888	0.00885	0.094604	0.072479	0.016174	0.002899	0.21255	0.079498	0.016022	0.072937	0.17105	-0.23025	0.011292	-0.029755	-0.007782	0.018158	-0.022125	0.10239	0.22614	-0.007477	-0.015869
23.603	0.041046	-0.077057	-0.12634	-0.010223	0.10574	-0.20081	0.023346	0.024567	0.048065	0.007324	0.00351	0.014496	-0.003357	0.069885	-0.062256	0.004883	0.008392	0.17578	0.15259	0.071106	0.08194	0.17425	-0.22446	0.024261	-0.026245	-0.023804	0.11597	0.015106	0.034027	0.32013	-0.00061	-0.018463
23.604	0.019836	-0.045471	-0.12528	0.021667	0.061798	-0.014038	0.064392	0.024109	-0.19989	0.011597	-0.085297	0.01236	-0.004883	0.075989	-0.05188	-0.020142	0.03479	0.19959	0.14114	0.071869	0.063629	0.10483	-0.2478	-0.001068	-0.035095	0.00061	0.069275	0.036163	-0.022888	0.42252	-0.005951	-0.016479
23.605	0.000153	-0.054626	-0.075531	0.005188	0.057678	0.046387	0.083466	0.016327	-0.45975	0.026703	-0.065002	0.015259	-0.01709	0.051422	0.004272	-0.003357	0.038605	0.19714	0.13962	-0.011444	0.039215	-0.001831	-0.3186	0.005035	-0.027466	0.006409	-0.006866	0.003357	-0.077362	0.29694	-0.001831	-0.016479
23.606	-0.009613	-0.05249	-0.004578	0.008698	0.022278	0.13382	0.05188	0.018311	-0.42679	0.035706	-0.057526	0.024414	0.019989	0.056458	-0.064392	-0.001831	0.037689	0.13687	0.14008	-0.028687	0.033112	-0.075684	-0.33157	-0.006866	-0.029755	0.000763	-0.048676	-0.003815	-0.112	0.090942	0.009308	-0.012512
23.607	-0.031433	-0.084381	0.032501	0.022888	-0.09903	0.20187	-0.008545	0.016785	-0.33005	0.016022	0.090179	0.027924	0.047607	0.045013	0.12085	0.003967	0.007324	0.16785	0.1088	-0.012665	0.006866	-0.080109	-0.36194	0.043335	-0.035858	-0.041962	-0.070038	-0.006104	-0.13489	-0.12039	-0.000916	-0.013885
